inDegrees=yes
name=ik_S52_A05_T02
DataType=double
version=3
OpenSimVersion=4.3-2021-08-27-4bc7ad9
endheader
time	pelvis_tilt	pelvis_list	pelvis_rotation	pelvis_tx	pelvis_ty	pelvis_tz	hip_flexion_r	hip_adduction_r	hip_rotation_r	knee_angle_r	knee_angle_r_beta	ankle_angle_r	subtalar_angle_r	mtp_angle_r	hip_flexion_l	hip_adduction_l	hip_rotation_l	knee_angle_l	knee_angle_l_beta	ankle_angle_l	subtalar_angle_l	mtp_angle_l	lumbar_extension	lumbar_bending	lumbar_rotation	arm_flex_r	arm_add_r	arm_rot_r	elbow_flex_r	pro_sup_r	wrist_flex_r	wrist_dev_r	arm_flex_l	arm_add_l	arm_rot_l	elbow_flex_l	pro_sup_l	wrist_flex_l	wrist_dev_l
26.17999999999953	-4.217979898268178	-1.92914848443739	21.08649295678244	0	0.9399999999999999	0	44.87668626794985	-10.04693868335554	-10.1157288581866	54.3913461542405	0.9493080749834523	0	0	0	44.87668626794985	-10.04693868335554	-10.1157288581866	54.3913461542405	0.9493080749834523	0	0	0	-3.373755882935451	-3.269295670288644	3.106035048722561	74.78639954222116	2.210748281654557	2.507036114141463	19.37531362796976	107.6950203685666	0	0	35.89557167775753	-7.468654171833537	-2.972381024903201	39.14229593826078	122.6164218308627	0	0
26.19999999999953	-4.171358131739618	-1.861214729347412	20.95961160824823	0	0.9399999999999999	0	44.87671308696741	-10.04690306783336	-10.11567251071185	54.39143492065242	0.9493096242496054	0	0	0	44.87671308696741	-10.04690306783336	-10.11567251071185	54.39143492065242	0.9493096242496054	0	0	0	-3.302528929579939	-3.230532185406364	3.22356054899695	74.46561456938298	1.142168328441884	2.144568918723834	19.52976796634635	107.8020807231627	0	0	35.77030525490985	-7.380106612267008	-2.965337254997949	39.10997019639732	122.605085665668	0	0
26.21999999999953	-4.129752911573055	-1.815766589878892	20.8079445398158	0	0.9399999999999999	0	44.87674146680359	-10.04686541236932	-10.1156129127479	54.39152888718391	0.9493112642749666	0	0	0	44.87674146680359	-10.04686541236932	-10.1156129127479	54.39152888718391	0.9493112642749666	0	0	0	-3.244842012825282	-3.208984145303173	3.316907806226252	74.29058786119366	0.2004447904989759	1.699674729178084	19.52693794933097	107.896019712358	0	0	35.64448260218994	-7.4032031670773	-3.093829317327769	39.13393208041356	122.6755443271187	0	0
26.23999999999953	-4.135376157007953	-1.788450900040574	20.67964551234912	0	0.9399999999999999	0	44.87677473542097	-10.04682136730012	-10.11554314266387	54.39163921194589	0.9493131898053095	0	0	0	44.87677473542097	-10.04682136730012	-10.11554314266387	54.39163921194589	0.9493131898053095	0	0	0	-3.239097709726411	-3.184637424528141	3.372997247448944	74.23398657320276	-0.4332605041349757	1.621666477247498	19.75127968619535	107.9044481880084	0	0	35.53612000901259	-7.500041379826357	-3.314820813150032	39.23471679313358	122.7452330813474	0	0
26.25999999999953	-4.124356653563279	-1.772366565829585	20.57423830984544	0	0.9399999999999999	0	44.87680585951204	-10.04678010104992	-10.11547780012481	54.39174223161015	0.9493149878376451	0	0	0	44.87680585951204	-10.04678010104992	-10.11547780012481	54.39174223161015	0.9493149878376451	0	0	0	-3.221204038702622	-3.177992832793756	3.446134342015374	74.07474895770949	-1.181210706889751	1.660786119679269	19.65863684827279	107.466403237614	0	0	35.49202588138976	-7.495008790621909	-3.349754553376033	39.25080670445003	122.7349410476646	0	0
26.27999999999953	-4.115170322405755	-1.692716094906638	20.40086430935875	0	0.9399999999999999	0	44.87686396144442	-10.04670292644093	-10.11535565460737	54.39193407219656	0.9493183360875171	0	0	0	44.87686396144442	-10.04670292644093	-10.11535565460737	54.39193407219656	0.9493183360875171	0	0	0	-3.184440298303024	-3.107422397120828	3.470552189948925	73.69378858806708	-1.78565069577952	1.691258304436521	20.18217621603422	107.3613732997394	0	0	35.28852813162942	-7.544199270602889	-3.604272243155865	39.35310374069242	122.7062830736831	0	0
26.29999999999953	-4.091663967012359	-1.645646932770699	20.22814493361434	0	0.9399999999999999	0	44.87689684548332	-10.04665935167174	-10.11528662230714	54.39204281267052	0.9493202339668179	0	0	0	44.87689684548332	-10.04665935167174	-10.11528662230714	54.39204281267052	0.9493202339668179	0	0	0	-3.143286272066934	-3.078592210936039	3.585993581534576	73.43409754960695	-2.873496476417956	1.011164310636934	19.91300741120283	107.4633528758188	0	0	35.14552496988082	-7.503614592871366	-3.619296067823337	39.36789957551233	122.7193990799656	0	0
26.31999999999953	-4.096088859404859	-1.616276651634858	20.06220137520549	0	0.9399999999999999	0	44.8769310989897	-10.04661396736272	-10.1152147120859	54.39215602830064	0.9493222099523282	0	0	0	44.8769310989897	-10.04661396736272	-10.1152147120859	54.39215602830064	0.9493222099523282	0	0	0	-3.135677826188981	-3.053546075147406	3.660352528332611	73.35220531299349	-3.694986530167179	0.3094919820359877	19.82649901819904	107.9174394663777	0	0	35.12858996196193	-7.4517749949833	-3.61336025930413	39.35639172227877	122.7031660939757	0	0
26.33999999999953	-4.085379998572653	-1.584178069797098	19.93351721399306	0	0.9399999999999999	0	44.87696219020653	-10.04657283325003	-10.11514949747833	54.39225888400125	0.9493240051229582	0	0	0	44.87696219020653	-10.04657283325003	-10.11514949747833	54.39225888400125	0.9493240051229582	0	0	0	-3.113518927421102	-3.030015283138183	3.714384289478277	73.26914079474599	-4.357358339137919	-0.08488439511477779	19.68035500488388	108.2471818347262	0	0	35.07637349101874	-7.447899272103576	-3.670493000679291	39.34617932810458	122.8085187715015	0	0
26.35999999999953	-4.096703731917658	-1.573249540010293	19.80825317097739	0	0.9399999999999999	0	44.87700054648977	-10.04652209311795	-10.11506904071118	54.39238571334841	0.9493262187126543	0	0	0	44.87700054648977	-10.04652209311795	-10.11506904071118	54.39238571334841	0.9493262187126543	0	0	0	-3.118788404718746	-3.020166335298987	3.790922253189278	73.12195005773667	-5.137974390605565	-0.3583154771197977	19.43340615811059	108.3558505027673	0	0	34.94046447443185	-7.563806822613756	-3.677054602842586	39.46797672252839	122.7916655903151	0	0
26.37999999999953	-4.096215655043547	-1.535116600838905	19.67838492460188	0	0.9399999999999999	0	44.87702468739872	-10.04649024242881	-10.11501848597053	54.39246569803713	0.9493276147088237	0	0	0	44.87702468739872	-10.04649024242881	-10.11501848597053	54.39246569803713	0.9493276147088237	0	0	0	-3.104591521767978	-2.986802645127654	3.834958070547268	72.9029610218367	-5.793737034015249	-0.5857463016796524	19.48448741072005	108.419712223079	0	0	34.8279638049028	-7.546863741697956	-3.70587186277118	39.52781164841379	122.7425155778059	0	0
26.39999999999953	-4.080223839404781	-1.486552977245074	19.55508390530886	0	0.9399999999999999	0	44.8770603524104	-10.04644311070886	-10.11494371036985	54.39258362767672	0.9493296729693202	0	0	0	44.8770603524104	-10.04644311070886	-10.11494371036985	54.39258362767672	0.9493296729693202	0	0	0	-3.07261053755734	-2.948203671292799	3.872118460486573	72.72947217376287	-6.375547212515765	-0.8122120760901992	19.43747056790871	108.3824714234176	0	0	34.6748597973178	-7.552259010603651	-3.812101163307209	39.62415630420115	122.8113633105762	0	0
26.41999999999953	-4.087011729471244	-1.458765634149148	19.40329622908947	0	0.9399999999999999	0	44.87709408407588	-10.04639863458021	-10.11487308608452	54.39269534089867	0.9493316227328613	0	0	0	44.87709408407588	-10.04639863458021	-10.11487308608452	54.39269534089867	0.9493316227328613	0	0	0	-3.070520481214605	-2.917876627978696	3.852059354731373	72.69492846160773	-6.673700167490567	-0.7462362008493131	19.26567547552503	108.0041915312026	0	0	34.54365149616083	-7.647189913049838	-4.031798234069322	39.74118984268787	122.8510650235448	0	0
26.43999999999953	-4.097781628995411	-1.4176410604881	19.28580246318105	0	0.9399999999999999	0	44.87714380096303	-10.04633303913846	-10.11476893345667	54.3928597741255	0.9493344926340692	0	0	0	44.87714380096303	-10.04633303913846	-10.11476893345667	54.3928597741255	0.9493344926340692	0	0	0	-3.06792330622461	-2.873389720883315	3.830880529052517	72.50201963902072	-6.846250252960185	-0.5595315735277699	19.55770133858141	107.8399842545819	0	0	34.50071217176863	-7.650965937958568	-4.203748831911008	39.74186032270085	122.9760450787235	0	0
26.45999999999952	-4.101973851468927	-1.357049829934978	19.15477637568375	0	0.9399999999999999	0	44.87717597775766	-10.04629065907517	-10.11470159418119	54.39296630084174	0.9493363518760087	0	0	0	44.87717597775766	-10.04629065907517	-10.11470159418119	54.39296630084174	0.9493363518760087	0	0	0	-3.052437584504646	-2.813652977123709	3.822244655926097	72.24486418038458	-7.1066455712903	-0.6989427830205904	19.52630847009643	107.722937669427	0	0	34.32827944886289	-7.660935941257597	-4.373112290902218	39.83462539486793	122.9706263047917	0	0
26.47999999999952	-4.102277247434414	-1.310409246070631	19.04362911149343	0	0.9399999999999999	0	44.87721373787181	-10.04624088659021	-10.11462252007243	54.39309114658008	0.9493385308452	0	0	0	44.87721373787181	-10.04624088659021	-10.11462252007243	54.39309114658008	0.9493385308452	0	0	0	-3.037474595912129	-2.769855589307551	3.837843285480323	72.02741836348623	-7.405244182614497	-1.083543167265658	19.75616531760808	108.0598322664399	0	0	34.20669630897188	-7.627843983377821	-4.413688004730067	39.87913247682078	122.9699317748692	0	0
26.49999999999952	-4.113582800342638	-1.276978677128129	18.97531137278842	0	0.9399999999999999	0	44.87724312848533	-10.04620217608603	-10.11456099684429	54.39318833423393	0.9493402270897519	0	0	0	44.87724312848533	-10.04620217608603	-10.11456099684429	54.39318833423393	0.9493402270897519	0	0	0	-3.037895907120171	-2.733042922338129	3.82050485298971	72.05186897657811	-7.464410587152694	-1.029971367604577	19.45719212240222	107.9890463550114	0	0	34.16058421508149	-7.583383334972448	-4.407278493438725	39.87767991315003	122.972025840061	0	0
26.51999999999952	-4.129900713690756	-1.238403204987842	18.86693671515586	0	0.9399999999999999	0	44.87727536302236	-10.04615980000832	-10.11449359809358	54.39329506360803	0.9493420898687386	0	0	0	44.87727536302236	-10.04615980000832	-10.11449359809358	54.39329506360803	0.9493420898687386	0	0	0	-3.03989796826354	-2.694709867738589	3.885932649960241	71.83138030920833	-7.993123426410246	-1.594609841686922	19.59750699001105	108.4529562475906	0	0	34.14585282953484	-7.538534785401754	-4.416339365672642	39.87187453611099	123.0435321951488	0	0
26.53999999999952	-4.163271175805002	-1.220854975942158	18.80826637666112	0	0.9399999999999999	0	44.87729000175507	-10.04614075614273	-10.11446319964258	54.39334399649486	0.9493429439087262	0	0	0	44.87729000175507	-10.04614075614273	-10.11446319964258	54.39334399649486	0.9493429439087262	0	0	0	-3.06597365293799	-2.667054278784382	3.887280137742726	71.71799109521277	-8.147045051398919	-1.636700613482718	19.63800586355541	108.4446283735746	0	0	34.15180972933869	-7.577636658716862	-4.489130902887847	39.88857115197601	123.0412534639834	0	0
26.55999999999952	-4.160736108120397	-1.208947276381425	18.77832446801821	0	0.9399999999999999	0	44.87733430661628	-10.0460827308183	-10.11437077457875	54.39349106234344	0.9493455106920011	0	0	0	44.87733430661628	-10.0460827308183	-10.11437077457875	54.39349106234344	0.9493455106920011	0	0	0	-3.059280035502248	-2.658941925481389	3.934348061107626	71.47216226204863	-8.307797107352844	-1.737224504829865	20.00110639797769	107.8654520340577	0	0	34.0834751824273	-7.609261392443998	-4.413446085472629	39.92795397316684	123.093107337551	0	0
